# xmcd
#
# Track frame offsets:
#	150
#	14076
#	29586
#	39177
#	52097
#	62349
#	93571
#	111483
#	123849
#	147612
#	161231
#	176159
#	188230
#	204934
#	217210
#	229803
#	240759
#	251795
#	278730
#	288155
#
# Disc length: 4209 seconds
#
# Revision: 0
# Processed by: cddbd v1.5PL3 Copyright (c) Steve Scherf et al.
# Submitted via: dBpowerAMP V4.0
#
DISCID=30106f14
DTITLE=聖經-舊約 - Disc 30
DYEAR=1900
DGENRE=
TTITLE0=30-01-歷代志下第1章
TTITLE1=30-02-歷代志下第2章
TTITLE2=30-03-歷代志下第3章
TTITLE3=30-04-歷代志下第4章
TTITLE4=30-05-歷代志下第5章
TTITLE5=30-06-歷代志下第6章
TTITLE6=30-07-歷代志下第7章
TTITLE7=30-08-歷代志下第8章
TTITLE8=30-09-歷代志下第9章
TTITLE9=30-10-歷代志下第10章
TTITLE10=30-11-歷代志下第11章
TTITLE11=30-12-歷代志下第12章
TTITLE12=30-13-歷代志下第13章
TTITLE13=30-14-歷代志下第14章
TTITLE14=30-15-歷代志下第15章
TTITLE15=30-16-歷代志下第16章
TTITLE16=30-17-歷代志下第17章
TTITLE17=30-18-歷代志下第18章
TTITLE18=30-19-歷代志下第19章
TTITLE19=30-20-歷代志下第20章
EXTD=
EXTT0=
EXTT1=
EXTT2=
EXTT3=
EXTT4=
EXTT5=
EXTT6=
EXTT7=
EXTT8=
EXTT9=
EXTT10=
EXTT11=
EXTT12=
EXTT13=
EXTT14=
EXTT15=
EXTT16=
EXTT17=
EXTT18=
EXTT19=
PLAYORDER=
